<svg width="512" height="512" viewBox="0 0 512 512" xmlns="http://www.w3.org/2000/svg">
  <defs>
    <!-- Gradients -->
    <linearGradient id="mainGradient" x1="0%" y1="0%" x2="100%" y2="100%">
      <stop offset="0%" style="stop-color:#dc2626;stop-opacity:1" />
      <stop offset="50%" style="stop-color:#ef4444;stop-opacity:1" />
      <stop offset="100%" style="stop-color:#f87171;stop-opacity:1" />
    </linearGradient>
    
    <linearGradient id="accentGradient" x1="0%" y1="0%" x2="100%" y2="100%">
      <stop offset="0%" style="stop-color:#3b82f6;stop-opacity:1" />
      <stop offset="100%" style="stop-color:#6366f1;stop-opacity:1" />
    </linearGradient>
    
    <linearGradient id="backgroundGradient" x1="0%" y1="0%" x2="100%" y2="100%">
      <stop offset="0%" style="stop-color:#ffffff;stop-opacity:1" />
      <stop offset="100%" style="stop-color:#f8fafc;stop-opacity:1" />
    </linearGradient>
    
    <!-- Shadows -->
    <filter id="shadow" x="-50%" y="-50%" width="200%" height="200%">
      <feDropShadow dx="0" dy="4" stdDeviation="8" flood-color="#000000" flood-opacity="0.1"/>
    </filter>
    
    <filter id="innerShadow" x="-50%" y="-50%" width="200%" height="200%">
      <feFlood flood-color="#000000" flood-opacity="0.1"/>
      <feComposite in="SourceGraphic"/>
      <feGaussianBlur stdDeviation="2"/>
      <feOffset dx="0" dy="2"/>
      <feComposite in="SourceGraphic"/>
    </filter>
  </defs>
  
  <!-- Background Circle -->
  <circle cx="256" cy="256" r="240" fill="url(#backgroundGradient)" stroke="url(#mainGradient)" stroke-width="8" filter="url(#shadow)"/>
  
  <!-- Main Medical Cross -->
  <g transform="translate(256, 256)">
    <!-- Vertical bar of cross -->
    <rect x="-20" y="-80" width="40" height="160" rx="20" ry="20" fill="url(#mainGradient)" filter="url(#innerShadow)"/>
    
    <!-- Horizontal bar of cross -->
    <rect x="-80" y="-20" width="160" height="40" rx="20" ry="20" fill="url(#mainGradient)" filter="url(#innerShadow)"/>
    
    <!-- Center highlight -->
    <circle cx="0" cy="0" r="25" fill="#ffffff" opacity="0.3"/>
  </g>
  
  <!-- Heart Icon (Top Left) -->
  <g transform="translate(160, 160)">
    <path d="M0,-20 C-10,-30 -30,-30 -30,-10 C-30,10 0,30 0,30 C0,30 30,10 30,-10 C30,-30 10,-30 0,-20 Z" 
          fill="url(#accentGradient)" opacity="0.8" transform="scale(0.8)"/>
  </g>
  
  <!-- Stethoscope Icon (Top Right) -->
  <g transform="translate(352, 160)">
    <circle cx="0" cy="15" r="8" fill="url(#accentGradient)" opacity="0.8"/>
    <path d="M0,7 Q-15,-10 -25,-15 Q-35,-20 -35,-10 Q-35,0 -25,5 Q-15,10 0,15" 
          stroke="url(#accentGradient)" stroke-width="3" fill="none" opacity="0.8"/>
    <circle cx="-35" cy="-10" r="4" fill="url(#accentGradient)" opacity="0.8"/>
  </g>
  
  <!-- Brain Icon (Bottom Left) -->
  <g transform="translate(160, 352)">
    <path d="M-15,-15 Q-25,-20 -20,-5 Q-25,5 -15,10 Q-5,15 5,10 Q15,15 25,10 Q30,5 25,-5 Q30,-20 20,-15 Q10,-20 0,-15 Q-10,-20 -15,-15 Z" 
          fill="url(#accentGradient)" opacity="0.8" transform="scale(0.7)"/>
  </g>
  
  <!-- Emergency Symbol (Bottom Right) -->
  <g transform="translate(352, 352)">
    <polygon points="0,-15 -13,10 13,10" fill="#fbbf24" opacity="0.8" transform="scale(0.8)"/>
    <circle cx="0" cy="5" r="2" fill="#ffffff"/>
    <rect x="-1" y="-5" width="2" height="8" fill="#ffffff"/>
  </g>
  
  <!-- Central AI Brain Symbol -->
  <g transform="translate(256, 200)">
    <circle cx="0" cy="0" r="12" fill="url(#accentGradient)" opacity="0.6"/>
    <circle cx="-8" cy="-4" r="3" fill="#ffffff" opacity="0.8"/>
    <circle cx="8" cy="-4" r="3" fill="#ffffff" opacity="0.8"/>
    <path d="M-6,4 Q0,8 6,4" stroke="#ffffff" stroke-width="2" fill="none" opacity="0.8"/>
  </g>
  
  <!-- Medical Pulse Line -->
  <g transform="translate(256, 320)">
    <path d="M-60,0 L-40,0 L-30,-15 L-20,15 L-10,-10 L0,0 L20,0 L30,-15 L40,15 L50,-10 L60,0" 
          stroke="url(#mainGradient)" stroke-width="3" fill="none" opacity="0.7"/>
  </g>
  
  <!-- Corner Medical Symbols -->
  <!-- Top Left: First Aid Kit -->
  <g transform="translate(100, 100)">
    <rect x="-8" y="-6" width="16" height="12" rx="2" fill="#ef4444" opacity="0.6"/>
    <rect x="-2" y="-8" width="4" height="16" fill="#ffffff"/>
    <rect x="-8" y="-2" width="16" height="4" fill="#ffffff"/>
  </g>
  
  <!-- Top Right: Hospital -->
  <g transform="translate(412, 100)">
    <rect x="-8" y="-8" width="16" height="16" fill="#3b82f6" opacity="0.6"/>
    <rect x="-2" y="-10" width="4" height="8" fill="#ffffff"/>
    <rect x="-6" y="-6" width="12" height="4" fill="#ffffff"/>
  </g>
  
  <!-- Bottom Left: Emergency Call -->
  <g transform="translate(100, 412)">
    <circle cx="0" cy="0" r="8" fill="#f59e0b" opacity="0.6"/>
    <path d="M-3,-3 Q0,-5 3,-3 Q3,0 0,3 Q-3,0 -3,-3" fill="#ffffff"/>
  </g>
  
  <!-- Bottom Right: Vitals -->
  <g transform="translate(412, 412)">
    <circle cx="0" cy="0" r="8" fill="#10b981" opacity="0.6"/>
    <path d="M-6,0 L-2,0 L0,-4 L2,4 L4,-2 L6,0" stroke="#ffffff" stroke-width="2" fill="none"/>
  </g>
  
  <!-- Text Elements -->
  <text x="256" y="420" text-anchor="middle" font-family="Inter, sans-serif" font-size="32" font-weight="bold" fill="url(#mainGradient)">DocAI</text>
  <text x="256" y="450" text-anchor="middle" font-family="Inter, sans-serif" font-size="14" font-weight="normal" fill="#6b7280">Medical Assistant</text>
  
  <!-- Decorative Elements -->
  <!-- Medical Molecules -->
  <g transform="translate(80, 256)" opacity="0.3">
    <circle cx="0" cy="0" r="3" fill="url(#accentGradient)"/>
    <circle cx="10" cy="5" r="2" fill="url(#accentGradient)"/>
    <circle cx="-8" cy="8" r="2" fill="url(#accentGradient)"/>
    <line x1="0" y1="0" x2="10" y2="5" stroke="url(#accentGradient)" stroke-width="1"/>
    <line x1="0" y1="0" x2="-8" y2="8" stroke="url(#accentGradient)" stroke-width="1"/>
  </g>
  
  <g transform="translate(432, 256)" opacity="0.3">
    <circle cx="0" cy="0" r="3" fill="url(#accentGradient)"/>
    <circle cx="-10" cy="-5" r="2" fill="url(#accentGradient)"/>
    <circle cx="8" cy="-8" r="2" fill="url(#accentGradient)"/>
    <line x1="0" y1="0" x2="-10" y2="-5" stroke="url(#accentGradient)" stroke-width="1"/>
    <line x1="0" y1="0" x2="8" y2="-8" stroke="url(#accentGradient)" stroke-width="1"/>
  </g>
  
  <!-- Subtle Background Pattern -->
  <defs>
    <pattern id="medicalPattern" x="0" y="0" width="40" height="40" patternUnits="userSpaceOnUse" opacity="0.05">
      <rect x="18" y="15" width="4" height="10" fill="url(#mainGradient)"/>
      <rect x="15" y="18" width="10" height="4" fill="url(#mainGradient)"/>
    </pattern>
  </defs>
  <rect x="0" y="0" width="512" height="512" fill="url(#medicalPattern)"/>
</svg>